HIERARCHY
ROOT pelvis
{
	OFFSET 0.000000 0.000000 0.000000
	CHANNELS 6 Xposition Yposition Zposition Zrotation Xrotation Yrotation
	JOINT lfemur
	{
		OFFSET 11.446000 0.000000 0.000000
		CHANNELS 3 Zrotation Xrotation Yrotation
		JOINT ltibia
		{
			OFFSET 0.000000 -42.030400 0.000000
			CHANNELS 3 Zrotation Xrotation Yrotation
			JOINT lfoot
			{
				OFFSET 0.000000 -39.930200 0.000000
				CHANNELS 3 Zrotation Xrotation Yrotation
				JOINT ltoes
				{
					OFFSET 0.000000 0.000000 11.775800
					CHANNELS 3 Zrotation Xrotation Yrotation
					End Site
					{
					    OFFSET 0.000000 0.000000 5.000000
					}
				}
			}
		}
	}
	JOINT rfemur
	{
		OFFSET -11.446000 0.000000 0.000000
		CHANNELS 3 Zrotation Xrotation Yrotation
		JOINT rtibia
		{
			OFFSET 0.000000 -42.030400 0.000000
			CHANNELS 3 Zrotation Xrotation Yrotation
			JOINT rfoot
			{
				OFFSET 0.000000 -39.930200 0.000000
				CHANNELS 3 Zrotation Xrotation Yrotation
				JOINT rtoes
				{
					OFFSET 0.000000 0.000000 11.775800
					CHANNELS 3 Zrotation Xrotation Yrotation
					End Site
					{
					    OFFSET 0.000000 0.000000 5.000000
					}
				}
			}
		}
	}
	JOINT thorax
	{
		OFFSET 0.000000 11.255600 -5.000000
		CHANNELS 3 Zrotation Xrotation Yrotation
		JOINT head
		{
			OFFSET 0.000000 43.799300 0.000000
			CHANNELS 3 Zrotation Xrotation Yrotation
			End Site
			{
			    OFFSET 0.000000 5.000000 0.000000
			}
		}
		JOINT lclavicle
		{
			OFFSET 0.000000 39.863000 0.000000
			CHANNELS 3 Zrotation Xrotation Yrotation
			JOINT lhumerus
			{
				OFFSET 17.380600 4.958300 0.000000
				CHANNELS 3 Zrotation Xrotation Yrotation
				JOINT lradius
				{
					OFFSET 0.000000 -27.561300 0.000000
					CHANNELS 3 Zrotation Xrotation Yrotation
					JOINT lhand
					{
						OFFSET 0.000000 -26.933000 0.000000
						CHANNELS 3 Zrotation Xrotation Yrotation
						End Site
						{
						    OFFSET 0.000000 -5.000000 0.000000
						}
					}
				}
			}
		}
		JOINT rclavicle
		{
			OFFSET 0.000000 39.863000 0.000000
			CHANNELS 3 Zrotation Xrotation Yrotation
			JOINT rhumerus
			{
				OFFSET -17.380600 4.958300 0.000000
				CHANNELS 3 Zrotation Xrotation Yrotation
				JOINT rradius
				{
					OFFSET 0.000000 -27.561300 0.000000
					CHANNELS 3 Zrotation Xrotation Yrotation
					JOINT rhand
					{
						OFFSET 0.000000 -26.933000 0.000000
						CHANNELS 3 Zrotation Xrotation Yrotation
						End Site
						{
						    OFFSET 0.000000 -5.000000 0.000000
						}
					}
				}
			}
		}
	}
}
MOTION
Frames:	6
Frame Time:	0.0333333
-4.381900 13.935300 -5.937800 -67.573474 -28.195871 -133.981902 -12.672693 -53.881124 -15.797328 -0.000000 67.755866 0.000000 -0.000000 4.073488 9.260035 0.000000 -1.452146 -0.000000 -26.688691 -57.694202 -49.696717 0.000000 77.624775 0.000000 0.000001 22.222681 12.366841 -0.000000 -29.618216 -0.000000 -11.763515 46.340237 -10.591596 -19.455297 37.395091 14.501949 -26.579828 -0.000000 -2.775426 41.227219 16.205922 -0.844843 0.000001 -26.624871 -41.739178 14.540222 -3.894917 -0.000000 17.405974 0.000000 -0.021859 -49.306076 17.892285 10.587325 -180.000036 -67.577746 -149.192011 -8.544234 -0.605228 -0.000000 
-4.614400 13.861200 -5.487300 -66.271209 -28.230596 -132.975205 -12.212101 -54.689900 -15.706953 0.000000 68.590195 -0.000000 -0.000000 3.965602 9.239811 0.000000 -1.454198 -0.000000 -27.586854 -58.775253 -50.716024 -0.000000 78.222034 -0.000000 0.000000 22.122445 11.887330 -0.000000 -29.620180 0.000000 -12.197789 47.057702 -10.624566 -20.807956 36.662857 15.445674 -26.849864 0.000000 -2.856634 42.808437 15.884401 -2.270629 0.000001 -26.477456 -41.156378 14.193334 -4.242787 -0.000000 19.086206 0.000000 -0.439605 -52.338584 17.571116 12.580027 180.000036 -68.509188 -140.682638 -17.618825 2.459817 -0.000000 
-4.954100 13.870800 -5.103600 -64.745381 -28.179804 -131.389750 -12.274857 -55.857161 -16.123245 -0.000000 70.060905 -0.000000 0.000000 3.676060 9.191582 0.000000 -1.465328 0.000000 -28.675219 -59.521170 -52.526896 0.000000 77.578186 0.000000 -0.000000 21.953322 12.430251 -0.000000 -29.617216 0.000000 -12.211875 47.416294 -10.635657 -21.509324 36.438967 15.766809 -26.461180 -0.000000 -3.042414 43.297662 15.677265 -2.817546 -0.000002 -25.647908 -41.939434 13.772663 -4.515593 -0.000000 18.013359 -0.000000 0.138635 -50.602255 19.306280 11.860124 180.000030 -70.484360 -137.852036 -19.922540 3.236641 -0.000000 
-5.269800 14.336600 -5.057200 -64.212830 -27.019935 -129.318039 -13.324573 -55.282470 -17.843909 -0.000000 71.624719 0.000000 0.000000 3.228421 9.152969 -0.000000 -1.464831 -0.000000 -27.563603 -58.547473 -50.849218 -0.000000 75.892406 -0.000000 0.000000 20.814054 12.938447 0.000000 -29.626935 0.000000 -11.385352 49.135048 -11.259259 -21.377270 36.502532 15.242128 -26.776592 0.000000 -3.154285 44.126964 16.335423 -3.122832 -0.000001 -25.834337 -42.740423 14.203779 -4.282242 -0.000000 16.318522 -0.000000 0.974083 -49.041677 21.877259 12.128202 -180.000032 -73.090286 -131.354365 -27.462763 5.791390 0.000000 
-5.561200 14.409600 -4.766100 -63.559243 -27.171274 -128.613787 -13.400185 -56.709977 -16.759694 0.000000 73.810052 -0.000000 0.000000 3.416850 9.174622 0.000000 -1.453003 0.000000 -28.155957 -58.622043 -51.571977 0.000000 73.776222 0.000000 -0.000000 20.865234 13.991757 0.000000 -29.621953 0.000000 -12.924274 49.304126 -10.836764 -22.398162 36.363970 15.749579 -28.446097 0.000000 -1.316192 46.809651 16.599462 -6.178532 -0.000000 -26.663307 -41.170893 13.526016 -4.415062 0.000000 15.028808 -0.000000 2.651237 -47.886587 24.274353 12.953392 -180.000032 -75.916717 -126.648473 -32.709027 7.566307 0.000000 
-5.763700 14.448200 -4.548800 -61.912844 -27.444706 -126.790486 -14.250107 -59.059431 -17.052307 -0.000000 76.071214 0.000000 -0.000000 2.999597 8.992374 -0.000000 -1.464318 -0.000000 -29.455425 -58.751130 -53.543176 0.000000 71.205871 -0.000000 -0.000000 21.060878 14.375885 -0.000000 -29.623141 -0.000000 -13.524451 49.271751 -10.324854 -21.356007 36.067438 14.665209 -28.605215 -0.000000 -0.714283 47.209723 17.472325 -8.238297 -0.000002 -27.468202 -42.357849 12.501605 -4.754765 0.000000 13.113132 -0.000000 3.612401 -45.700245 26.124383 13.180912 -180.000037 -79.415538 -121.904582 -38.652924 9.583485 0.000000 
